<svg width="27" height="27" viewBox="0 0 27 27" fill="none" xmlns="http://www.w3.org/2000/svg">
<path d="M7.27251 7.1676H7.28344M7.27251 20.2926H7.28344M5.08501 2.7926H22.585C23.7931 2.7926 24.7725 3.77198 24.7725 4.9801V9.3551C24.7725 10.5632 23.7931 11.5426 22.585 11.5426H5.08501C3.87688 11.5426 2.89751 10.5632 2.89751 9.3551V4.9801C2.89751 3.77198 3.87688 2.7926 5.08501 2.7926ZM5.08501 15.9176H22.585C23.7931 15.9176 24.7725 16.897 24.7725 18.1051V22.4801C24.7725 23.6882 23.7931 24.6676 22.585 24.6676H5.08501C3.87688 24.6676 2.89751 23.6882 2.89751 22.4801V18.1051C2.89751 16.897 3.87688 15.9176 5.08501 15.9176Z" stroke="#1873DE" stroke-width="2.1875" stroke-linecap="round" stroke-linejoin="round"/>
</svg>
