<svg width="11" height="16" viewBox="0 0 11 16" fill="none" xmlns="http://www.w3.org/2000/svg">
<path d="M7.06225 6.43414L3.93726 9.81956M3.93726 6.43414L7.06225 9.81956M10.4998 8.80393C10.4998 12.1894 8.31225 13.8821 5.71225 14.8638C5.57611 14.9138 5.42822 14.9114 5.2935 14.8571C2.68726 13.8821 0.499756 12.1894 0.499756 8.80393V4.06435C0.499756 3.88478 0.565604 3.71256 0.682814 3.58558C0.800024 3.4586 0.958995 3.38727 1.12476 3.38727C2.37476 3.38727 3.93725 2.57477 5.02475 1.5456C5.15716 1.42305 5.3256 1.35571 5.49975 1.35571C5.67391 1.35571 5.84235 1.42305 5.97476 1.5456C7.0685 2.58154 8.62475 3.38727 9.87475 3.38727C10.0405 3.38727 10.1995 3.4586 10.3167 3.58558C10.4339 3.71256 10.4998 3.88478 10.4998 4.06435V8.80393Z" stroke="#FFF8F7" stroke-width="0.739568" stroke-linecap="round" stroke-linejoin="round"/>
</svg>
