<svg width="23" height="23" viewBox="0 0 23 23" fill="none" xmlns="http://www.w3.org/2000/svg">
<circle cx="11.0398" cy="11.9102" r="10.5" fill="#7A44FF" stroke="#FAFAFA"/>
<mask id="mask0_1_425" style="mask-type:alpha" maskUnits="userSpaceOnUse" x="5" y="4" width="14" height="14">
<rect x="5.04004" y="4.91003" width="13" height="13" fill="#D9D9D9"/>
</mask>
<g mask="url(#mask0_1_425)">
<path d="M5.58154 15.7436V14.2269C5.58154 13.92 5.66054 13.6378 5.81852 13.3805C5.97651 13.1233 6.1864 12.9269 6.44821 12.7915C7.00793 12.5116 7.57668 12.3017 8.15446 12.1618C8.73224 12.0219 9.31904 11.9519 9.91488 11.9519C10.5107 11.9519 11.0975 12.0219 11.6753 12.1618C12.2531 12.3017 12.8218 12.5116 13.3815 12.7915C13.6433 12.9269 13.8532 13.1233 14.0112 13.3805C14.1692 13.6378 14.2482 13.92 14.2482 14.2269V15.7436H5.58154ZM15.3315 15.7436V14.1186C15.3315 13.7213 15.221 13.3399 14.9998 12.9743C14.7786 12.6087 14.4649 12.295 14.0586 12.0332C14.519 12.0873 14.9524 12.1799 15.3586 12.3108C15.7649 12.4417 16.144 12.6019 16.4961 12.7915C16.8211 12.972 17.0694 13.1729 17.2409 13.3941C17.4124 13.6153 17.4982 13.8568 17.4982 14.1186V15.7436H15.3315ZM9.91488 11.4102C9.31904 11.4102 8.80897 11.1981 8.38467 10.7738C7.96036 10.3495 7.74821 9.8394 7.74821 9.24357C7.74821 8.64774 7.96036 8.13767 8.38467 7.71336C8.80897 7.28906 9.31904 7.0769 9.91488 7.0769C10.5107 7.0769 11.0208 7.28906 11.4451 7.71336C11.8694 8.13767 12.0815 8.64774 12.0815 9.24357C12.0815 9.8394 11.8694 10.3495 11.4451 10.7738C11.0208 11.1981 10.5107 11.4102 9.91488 11.4102ZM15.3315 9.24357C15.3315 9.8394 15.1194 10.3495 14.6951 10.7738C14.2708 11.1981 13.7607 11.4102 13.1649 11.4102C13.0656 11.4102 12.9392 11.399 12.7857 11.3764C12.6322 11.3538 12.5058 11.329 12.4065 11.3019C12.6503 11.013 12.8376 10.6925 12.9685 10.3404C13.0994 9.98836 13.1649 9.62274 13.1649 9.24357C13.1649 8.8644 13.0994 8.49878 12.9685 8.1467C12.8376 7.79461 12.6503 7.47413 12.4065 7.18524C12.5329 7.1401 12.6593 7.11076 12.7857 7.09722C12.9121 7.08368 13.0385 7.0769 13.1649 7.0769C13.7607 7.0769 14.2708 7.28906 14.6951 7.71336C15.1194 8.13767 15.3315 8.64774 15.3315 9.24357ZM6.66488 14.6602H13.1649V14.2269C13.1649 14.1276 13.14 14.0373 13.0904 13.9561C13.0407 13.8748 12.9753 13.8116 12.894 13.7665C12.4065 13.5227 11.9145 13.3399 11.418 13.2181C10.9215 13.0962 10.4204 13.0352 9.91488 13.0352C9.40932 13.0352 8.90828 13.0962 8.41175 13.2181C7.91522 13.3399 7.42321 13.5227 6.93571 13.7665C6.85446 13.8116 6.78901 13.8748 6.73936 13.9561C6.6897 14.0373 6.66488 14.1276 6.66488 14.2269V14.6602ZM9.91488 10.3269C10.2128 10.3269 10.4678 10.2208 10.68 10.0087C10.8921 9.79652 10.9982 9.54149 10.9982 9.24357C10.9982 8.94565 10.8921 8.69062 10.68 8.47847C10.4678 8.26631 10.2128 8.16024 9.91488 8.16024C9.61696 8.16024 9.36192 8.26631 9.14977 8.47847C8.93762 8.69062 8.83154 8.94565 8.83154 9.24357C8.83154 9.54149 8.93762 9.79652 9.14977 10.0087C9.36192 10.2208 9.61696 10.3269 9.91488 10.3269Z" fill="white"/>
</g>
</svg>
