<svg width="26" height="27" viewBox="0 0 26 27" fill="none" xmlns="http://www.w3.org/2000/svg">
<path d="M2.16675 13.4599C2.16675 14.8965 2.73743 16.2742 3.75325 17.29C4.76908 18.3059 6.14683 18.8765 7.58342 18.8765C9.5851 18.9511 11.4992 19.7167 13.0001 21.0432C14.501 19.7167 16.4151 18.9511 18.4167 18.8765C19.8533 18.8765 21.2311 18.3059 22.2469 17.29C23.2627 16.2742 23.8334 14.8965 23.8334 13.4599V8.04321H18.4167C16.4151 8.11777 14.501 8.8834 13.0001 10.2099C11.4992 8.8834 9.5851 8.11777 7.58342 8.04321H2.16675V13.4599Z" stroke="#E6372B" stroke-width="1.625" stroke-linecap="round" stroke-linejoin="round"/>
<path d="M6.50008 12.3765C8.12508 12.3765 9.75008 12.9182 9.75008 14.5432C7.58342 14.5432 6.50008 14.5432 6.50008 12.3765Z" stroke="#E6372B" stroke-width="1.625" stroke-linecap="round" stroke-linejoin="round"/>
<path d="M19.5001 12.3765C17.8751 12.3765 16.2501 12.9182 16.2501 14.5432C18.4167 14.5432 19.5001 14.5432 19.5001 12.3765Z" stroke="#E6372B" stroke-width="1.625" stroke-linecap="round" stroke-linejoin="round"/>
</svg>
